<?xml version="1.0" standalone="no"?>
<!DOCTYPE svg PUBLIC "-//W3C//DTD SVG 20010904//EN"
 "http://www.w3.org/TR/2001/REC-SVG-20010904/DTD/svg10.dtd">
<svg version="1.0" xmlns="http://www.w3.org/2000/svg"
 width="500.000000pt" height="500.000000pt" viewBox="0 0 500.000000 500.000000"
 preserveAspectRatio="xMidYMid meet">

<g transform="translate(0.000000,500.000000) scale(0.100000,-0.100000)"
fill="#000000" stroke="none">
<path d="M0 2500 l0 -2500 2500 0 2500 0 0 2500 0 2500 -2500 0 -2500 0 0
-2500z m1938 654 c264 -55 437 -224 498 -489 25 -109 25 -319 0 -430 -31 -136
-84 -235 -173 -324 -88 -88 -175 -137 -308 -173 -71 -19 -113 -22 -372 -26
l-293 -4 0 731 0 731 285 0 c222 0 303 -4 363 -16z m1553 -11 c122 -36 190
-90 233 -183 31 -68 29 -226 -4 -294 -41 -84 -127 -151 -218 -171 -42 -9 -32
-19 32 -34 107 -26 189 -89 233 -179 25 -51 28 -67 27 -157 -1 -123 -24 -191
-91 -265 -53 -59 -109 -94 -196 -123 -57 -19 -91 -21 -394 -25 l-333 -4 0 732
0 732 323 -4 c286 -4 329 -7 388 -25z"/>
<path d="M1460 2446 l0 -586 154 0 c184 0 282 16 383 64 188 89 276 258 276
526 0 256 -78 418 -241 503 -102 54 -171 67 -384 74 l-188 6 0 -587z"/>
<path d="M2958 3025 c-5 -5 -8 -113 -8 -242 l0 -233 193 0 c334 0 415 43 425
226 7 127 -43 195 -169 230 -60 17 -429 32 -441 19z"/>
<path d="M2950 2130 l0 -270 209 0 c232 0 297 12 368 65 81 63 113 230 61 333
-56 112 -147 142 -442 142 l-196 0 0 -270z"/>
</g>
</svg>
